<svg width="151" height="27" viewBox="0 0 151 27" fill="none" xmlns="http://www.w3.org/2000/svg">
<path d="M9.112 26.224C7.46933 26.224 5.99733 25.9573 4.696 25.424C3.39467 24.8907 2.34933 24.1013 1.56 23.056C0.792 22.0107 0.386667 20.752 0.344 19.28H6.168C6.25333 20.112 6.54133 20.752 7.032 21.2C7.52267 21.6267 8.16267 21.84 8.952 21.84C9.76267 21.84 10.4027 21.6587 10.872 21.296C11.3413 20.912 11.576 20.3893 11.576 19.728C11.576 19.1733 11.384 18.7147 11 18.352C10.6373 17.9893 10.1787 17.6907 9.624 17.456C9.09067 17.2213 8.32267 16.9547 7.32 16.656C5.86933 16.208 4.68533 15.76 3.768 15.312C2.85067 14.864 2.06133 14.2027 1.4 13.328C0.738667 12.4533 0.408 11.312 0.408 9.904C0.408 7.81333 1.16533 6.18133 2.68 5.008C4.19467 3.81333 6.168 3.216 8.6 3.216C11.0747 3.216 13.0693 3.81333 14.584 5.008C16.0987 6.18133 16.9093 7.824 17.016 9.936H11.096C11.0533 9.21067 10.7867 8.64533 10.296 8.24C9.80533 7.81333 9.176 7.6 8.408 7.6C7.74667 7.6 7.21333 7.78133 6.808 8.144C6.40267 8.48533 6.2 8.98667 6.2 9.648C6.2 10.3733 6.54133 10.9387 7.224 11.344C7.90667 11.7493 8.97333 12.1867 10.424 12.656C11.8747 13.1467 13.048 13.616 13.944 14.064C14.8613 14.512 15.6507 15.1627 16.312 16.016C16.9733 16.8693 17.304 17.968 17.304 19.312C17.304 20.592 16.9733 21.7547 16.312 22.8C15.672 23.8453 14.7333 24.6773 13.496 25.296C12.2587 25.9147 10.7973 26.224 9.112 26.224ZM32.6475 7.952C34.6955 7.952 36.3382 8.63467 37.5755 10C38.8128 11.344 39.4315 13.2 39.4315 15.568V26H33.9915V16.304C33.9915 15.1093 33.6822 14.1813 33.0635 13.52C32.4448 12.8587 31.6128 12.528 30.5675 12.528C29.5222 12.528 28.6902 12.8587 28.0715 13.52C27.4528 14.1813 27.1435 15.1093 27.1435 16.304V26H21.6715V2.32H27.1435V10.544C27.6982 9.75467 28.4555 9.12533 29.4155 8.656C30.3755 8.18667 31.4528 7.952 32.6475 7.952ZM52.362 26.256C50.6127 26.256 49.034 25.8827 47.626 25.136C46.2393 24.3893 45.1407 23.3227 44.33 21.936C43.5407 20.5493 43.146 18.928 43.146 17.072C43.146 15.2373 43.5513 13.6267 44.362 12.24C45.1727 10.832 46.282 9.75467 47.69 9.008C49.098 8.26133 50.6767 7.888 52.426 7.888C54.1753 7.888 55.754 8.26133 57.162 9.008C58.57 9.75467 59.6793 10.832 60.49 12.24C61.3007 13.6267 61.706 15.2373 61.706 17.072C61.706 18.9067 61.29 20.528 60.458 21.936C59.6473 23.3227 58.5273 24.3893 57.098 25.136C55.69 25.8827 54.1113 26.256 52.362 26.256ZM52.362 21.52C53.4073 21.52 54.2927 21.136 55.018 20.368C55.7647 19.6 56.138 18.5013 56.138 17.072C56.138 15.6427 55.7753 14.544 55.05 13.776C54.346 13.008 53.4713 12.624 52.426 12.624C51.3593 12.624 50.474 13.008 49.77 13.776C49.066 14.5227 48.714 15.6213 48.714 17.072C48.714 18.5013 49.0553 19.6 49.738 20.368C50.442 21.136 51.3167 21.52 52.362 21.52ZM91.241 8.144L86.409 26H80.361L77.545 14.416L74.633 26H68.617L63.753 8.144H69.225L71.753 20.912L74.761 8.144H80.553L83.593 20.848L86.089 8.144H91.241Z" fill="#14142B"/>
<path d="M108.952 3.536V7.92H99.7998V12.656H106.648V16.912H99.7998V26H94.3278V3.536H108.952ZM118.3 2.32V26H112.828V2.32H118.3ZM126.017 6.288C125.057 6.288 124.268 6.01067 123.649 5.456C123.052 4.88 122.753 4.176 122.753 3.344C122.753 2.49067 123.052 1.78667 123.649 1.232C124.268 0.655998 125.057 0.367998 126.017 0.367998C126.956 0.367998 127.724 0.655998 128.321 1.232C128.94 1.78667 129.249 2.49067 129.249 3.344C129.249 4.176 128.94 4.88 128.321 5.456C127.724 6.01067 126.956 6.288 126.017 6.288ZM128.737 8.144V26H123.265V8.144H128.737ZM144.263 26L140.839 21.04L137.959 26H132.039L137.927 16.88L131.879 8.144H138.023L141.447 13.072L144.327 8.144H150.247L144.263 17.136L150.407 26H144.263Z" fill="#5F2EEA"/>
</svg>
