<svg width="20" height="19" viewBox="0 0 20 19" fill="none" xmlns="http://www.w3.org/2000/svg">
<path d="M9.3078 1.4913C9.56444 0.87653 10.4354 0.876528 10.692 1.4913L12.3837 5.54377C12.4863 5.78946 12.7114 5.96236 12.9753 5.99807L17.4542 6.60427C18.1043 6.69227 18.3361 7.51376 17.8277 7.92857L14.3776 10.744C14.1562 10.9247 14.0567 11.2156 14.1211 11.4941L15.2237 16.2585C15.3787 16.9287 14.6252 17.4367 14.0621 17.0415L10.4308 14.4928C10.1722 14.3113 9.82763 14.3113 9.56906 14.4928L5.93768 17.0415C5.37465 17.4367 4.62106 16.9287 4.77613 16.2586L5.87859 11.4941C5.94303 11.2156 5.84355 10.9247 5.62208 10.744L2.17205 7.92857C1.66373 7.51375 1.89547 6.69227 2.54565 6.60427L7.02459 5.99807C7.28842 5.96236 7.51355 5.78946 7.61611 5.54377L9.3078 1.4913Z" stroke="#14142B" stroke-width="2" stroke-miterlimit="3.3292" stroke-linecap="round" stroke-linejoin="round"/>
</svg>
